<?xml version="1.0" encoding="UTF-8"?>
<svg width="1200" height="800" xmlns="http://www.w3.org/2000/svg">
  <!-- Terminal background -->
  <rect width="100%" height="100%" fill="#1e1e1e"/>
  
  <!-- Terminal window frame -->
  <rect x="0" y="0" width="100%" height="30" fill="#2d2d2d"/>
  <circle cx="20" cy="15" r="6" fill="#ff5f56"/>
  <circle cx="40" cy="15" r="6" fill="#ffbd2e"/>  
  <circle cx="60" cy="15" r="6" fill="#27c93f"/>
  <text x="100" y="20" fill="#cccccc" font-family="SF Mono, Monaco, monospace" font-size="12">Horse Racing Text Game</text>
  
  <!-- Terminal content -->
  <g font-family="SF Mono, Monaco, Inconsolata, monospace" font-size="14" fill="#00ff00">
    <text x="20" y="50">Horse Racing Text Game - Starting...</text>
    <text x="20" y="68">Use number keys (1-5) for options, Q to quit</text>
    <text x="20" y="86"></text>
    <text x="20" y="104">Starting Horse Racing Text Game...</text>
    <text x="20" y="122"></text>
    <text x="20" y="140">===============================================</text>
    <text x="20" y="158">           HORSE RACING TEXT GAME            </text>
    <text x="20" y="176">===============================================</text>
    <text x="20" y="194"></text>
    <text x="20" y="212">MAIN MENU</text>
    <text x="20" y="230">---------</text>
    <text x="20" y="248"></text>
    <text x="20" y="266">1. New Career - Start training a new horse</text>
    <text x="20" y="284">2. Load Game - Continue a saved career</text>
    <text x="20" y="302">3. Help - Learn how to play</text>
    <text x="20" y="320">4. Quit - Exit the game</text>
    <text x="20" y="338"></text>
    <text x="20" y="356">Enter your choice (1-4):</text>
    <text x="20" y="374"></text>
    <text x="20" y="392"></text>
    <text x="20" y="410"></text>
    <text x="20" y="428">🌟 Thanks for playing Horse Racing Text Game!</text>
    <text x="20" y="446">👋 Goodbye!</text>
    <text x="20" y="464">🧹 Cleaning up resources...</text>
    <text x="20" y="482">✅ Cleanup complete</text>
    <text x="20" y="500"></text>
  </g>
</svg>