<?xml version="1.0" encoding="UTF-8"?>
<svg width="1200" height="868" xmlns="http://www.w3.org/2000/svg">
  <!-- Terminal background -->
  <rect width="100%" height="100%" fill="#1e1e1e"/>
  
  <!-- Terminal window frame -->
  <rect x="0" y="0" width="100%" height="30" fill="#2d2d2d"/>
  <circle cx="20" cy="15" r="6" fill="#ff5f56"/>
  <circle cx="40" cy="15" r="6" fill="#ffbd2e"/>  
  <circle cx="60" cy="15" r="6" fill="#27c93f"/>
  <text x="100" y="20" fill="#cccccc" font-family="SF Mono, Monaco, monospace" font-size="12">Horse Racing Text Game</text>
  
  <!-- Terminal content -->
  <g font-family="SF Mono, Monaco, Inconsolata, monospace" font-size="14" fill="#00ff00">
    <text x="20" y="50">Horse Racing Text Game - Starting...</text>
    <text x="20" y="68">Use number keys (1-5) for options, Q to quit</text>
    <text x="20" y="86"></text>
    <text x="20" y="104">===============================================</text>
    <text x="20" y="122">           HORSE RACING TEXT GAME            </text>
    <text x="20" y="140">===============================================</text>
    <text x="20" y="158"></text>
    <text x="20" y="176"></text>
    <text x="20" y="194">TRAINING - Thunder Horse</text>
    <text x="20" y="212">========================</text>
    <text x="20" y="230"></text>
    <text x="20" y="248"></text>
    <text x="20" y="266">STATS:</text>
    <text x="20" y="284">  Speed:   28/100  [██████░░░░░░░░░░░░░░]</text>
    <text x="20" y="302">  Stamina: 32/100  [███████░░░░░░░░░░░░░]</text>
    <text x="20" y="320">  Power:   25/100  [█████░░░░░░░░░░░░░░░]</text>
    <text x="20" y="338"></text>
    <text x="20" y="356"></text>
    <text x="20" y="374">CONDITION:</text>
    <text x="20" y="392">  Energy: 85/100  [█████████████████░░░]</text>
    <text x="20" y="410">  Form:   Good Form</text>
    <text x="20" y="428"></text>
    <text x="20" y="446"></text>
    <text x="20" y="464">CAREER:</text>
    <text x="20" y="482">  Turn: 3/24</text>
    <text x="20" y="500">  Bond: 45/100</text>
    <text x="20" y="518"></text>
    <text x="20" y="536"></text>
    <text x="20" y="554">=== UPCOMING RACE ===</text>
    <text x="20" y="572">Race: Earth Heritage Mile</text>
    <text x="20" y="590">Turn: 4</text>
    <text x="20" y="608">Distance: 1600m</text>
    <text x="20" y="626">Surface: DIRT</text>
    <text x="20" y="644">Type: MILE</text>
    <text x="20" y="662">Turns until race: 1</text>
    <text x="20" y="680">=====================</text>
    <text x="20" y="698"></text>
    <text x="20" y="716"></text>
    <text x="20" y="734">TRAINING OPTIONS:</text>
    <text x="20" y="752">1. Speed Training   (Cost: 15 energy)</text>
    <text x="20" y="770">2. Stamina Training (Cost: 10 energy)</text>
    <text x="20" y="788">3. Power Training   (Cost: 15 energy)</text>
    <text x="20" y="806">4. Rest Day         (Gain: 30 energy)</text>
    <text x="20" y="824">5. Media Day        (Gain: 15 energy)</text>
    <text x="20" y="842"></text>
    <text x="20" y="860">Enter your choice (1-5), or S to save, Q to quit:</text>
  </g>
</svg>