<?xml version="1.0" encoding="UTF-8"?>
<svg width="1200" height="800" xmlns="http://www.w3.org/2000/svg">
  <!-- Terminal background -->
  <rect width="100%" height="100%" fill="#1e1e1e"/>
  
  <!-- Terminal window frame -->
  <rect x="0" y="0" width="100%" height="30" fill="#2d2d2d"/>
  <circle cx="20" cy="15" r="6" fill="#ff5f56"/>
  <circle cx="40" cy="15" r="6" fill="#ffbd2e"/>  
  <circle cx="60" cy="15" r="6" fill="#27c93f"/>
  <text x="100" y="20" fill="#cccccc" font-family="SF Mono, Monaco, monospace" font-size="12">Horse Racing Text Game</text>
  
  <!-- Terminal content -->
  <g font-family="SF Mono, Monaco, Inconsolata, monospace" font-size="14" fill="#00ff00">
    <text x="20" y="50">===============================================</text>
    <text x="20" y="68">           HORSE RACING TEXT GAME            </text>
    <text x="20" y="86">===============================================</text>
    <text x="20" y="104"></text>
    <text x="20" y="122">RACE RESULTS - Earth Heritage Mile</text>
    <text x="20" y="140">==================================</text>
    <text x="20" y="158"></text>
    <text x="20" y="176">Final Positions:</text>
    <text x="20" y="194">1st: Thunder Horse (You!) - 1:42.3</text>
    <text x="20" y="212">2nd: Lightning Strike - 1:42.8  </text>
    <text x="20" y="230">3rd: Storm Runner - 1:43.1</text>
    <text x="20" y="248">4th: Wind Dancer - 1:43.5</text>
    <text x="20" y="266">5th: Fire Bolt - 1:44.2</text>
    <text x="20" y="284">6th: Silver Arrow - 1:44.7</text>
    <text x="20" y="302">7th: Gold Rush - 1:45.1</text>
    <text x="20" y="320">8th: Star Chaser - 1:45.9</text>
    <text x="20" y="338"></text>
    <text x="20" y="356">🏆 CONGRATULATIONS! YOU WON! 🏆</text>
    <text x="20" y="374"></text>
    <text x="20" y="392">Performance Analysis:</text>
    <text x="20" y="410">- Speed Factor: 85%</text>
    <text x="20" y="428">- Stamina Usage: 72%  </text>
    <text x="20" y="446">- Form Bonus: +10%</text>
    <text x="20" y="464">- Strategy: MID (Effective)</text>
    <text x="20" y="482"></text>
    <text x="20" y="500">Race Effects:</text>
    <text x="20" y="518">- Bond +5 (Excellent performance!)</text>
    <text x="20" y="536">- Energy -18 (Race fatigue)</text>
    <text x="20" y="554">- Prize Money: $5,000</text>
    <text x="20" y="572"></text>
    <text x="20" y="590">Press any key to continue...</text>
  </g>
</svg>